<?xml version="1.0" encoding="utf-8"?>
<!-- Generator: Adobe Illustrator 21.0.2, SVG Export Plug-In . SVG Version: 6.00 Build 0)  -->
<!DOCTYPE svg PUBLIC "-//W3C//DTD SVG 1.1//EN" "http://www.w3.org/Graphics/SVG/1.1/DTD/svg11.dtd">
<svg version="1.1" id="Layer_1" xmlns="http://www.w3.org/2000/svg" xmlns:xlink="http://www.w3.org/1999/xlink" x="0px" y="0px"
	 viewBox="0 0 306 43.5" style="enable-background:new 0 0 306 43.5;" xml:space="preserve">
<style type="text/css">
	.st0{fill:url(#SVGID_1_);}
	.st1{fill:url(#SVGID_2_);}
	.st2{fill:none;stroke:#4D4D4D;stroke-miterlimit:10;}
	.st3{enable-background:new    ;}
	.st4{fill:#F2F2F2;}
	.st5{fill:none;}
	.st6{font-family:'NunitoSans-Bold';}
	.st7{font-size:8px;}
	.st8{font-family:'CartographSansCF-RegularItalic';}
</style>
<linearGradient id="SVGID_1_" gradientUnits="userSpaceOnUse" x1="3" y1="23.35" x2="153" y2="23.35" gradientTransform="matrix(1 0 0 -1 0 46)">
	<stop  offset="8.999634e-04" style="stop-color:#DA285A;stop-opacity:0.8"/>
	<stop  offset="1" style="stop-color:#269EDD;stop-opacity:0.8"/>
</linearGradient>
<rect x="3" y="14.8" class="st0" width="150" height="15.7"/>
<linearGradient id="SVGID_2_" gradientUnits="userSpaceOnUse" x1="153.55" y1="23.35" x2="303.7" y2="23.35" gradientTransform="matrix(1 0 0 -1 0 46)">
	<stop  offset="8.999634e-04" style="stop-color:#24E0DF;stop-opacity:0.8"/>
	<stop  offset="1" style="stop-color:#C2E222;stop-opacity:0.8"/>
</linearGradient>
<rect x="153.6" y="14.8" class="st1" width="150.2" height="15.7"/>
<line class="st2" x1="153.3" y1="30.6" x2="153.3" y2="14.8"/>
<g class="st3">
	<path class="st4" d="M226,20.1v5.4c0,0.1,0,0.1-0.1,0.1h-0.7c-0.1,0-0.1,0-0.1-0.1v-3.7l-1.5,3.7c0,0.1-0.1,0.1-0.1,0.1h-0.6
		c-0.1,0-0.1,0-0.1-0.1l-1.5-3.7v3.7c0,0.1,0,0.1-0.1,0.1h-0.7c-0.1,0-0.1,0-0.1-0.1v-5.4c0-0.1,0-0.1,0.1-0.1h0.8
		c0.1,0,0.1,0,0.1,0.1l1.8,4.5l1.8-4.5c0-0.1,0.1-0.1,0.1-0.1h0.8C225.9,20,226,20.1,226,20.1z"/>
	<path class="st4" d="M227.2,22.8c0-1.6,1.3-2.9,2.9-2.9c1.6,0,2.9,1.3,2.9,2.9c0,1.6-1.3,2.9-2.9,2.9
		C228.5,25.7,227.2,24.4,227.2,22.8z M232,22.8c0-1.1-0.9-2-2-2s-2,0.9-2,2c0,1.1,0.9,2,2,2S232,24,232,22.8z"/>
	<path class="st4" d="M238.2,25.5c0,0.1,0,0.1-0.1,0.1h-0.7c-0.1,0-0.1,0-0.1-0.1l-1-1.9h-0.1H235v1.9c0,0.1,0,0.1-0.1,0.1h-0.7
		c-0.1,0-0.1,0-0.1-0.1v-5.4c0-0.1,0-0.1,0.1-0.1h2c1.6,0,2.1,0.6,2.1,1.8c0,0.9-0.3,1.5-1.1,1.7L238.2,25.5z M235,22.8h1.3
		c0.7,0,1.2-0.2,1.2-1c0-0.8-0.5-1-1.2-1H235V22.8z"/>
	<path class="st4" d="M243.1,24.9v0.6c0,0.1,0,0.1-0.1,0.1h-3.4c-0.1,0-0.1,0-0.1-0.1v-5.4c0-0.1,0-0.1,0.1-0.1h3.4
		c0.1,0,0.1,0,0.1,0.1v0.6c0,0.1,0,0.1-0.1,0.1h-2.7v1.5h2.5c0.1,0,0.1,0,0.1,0.1V23c0,0.1,0,0.1-0.1,0.1h-2.5v1.7h2.7
		C243,24.8,243.1,24.8,243.1,24.9z"/>
	<path class="st4" d="M251.9,25.6h-0.7c-0.1,0-0.1,0-0.1-0.1l-0.4-1h-2.4l-0.4,1c0,0.1-0.1,0.1-0.1,0.1h-0.7c-0.1,0-0.1-0.1-0.1-0.1
		l2-5.4c0-0.1,0.1-0.1,0.1-0.1h0.6c0.1,0,0.1,0,0.1,0.1l2,5.4C252,25.5,252,25.6,251.9,25.6z M250.4,23.7l-0.9-2.6l-0.9,2.6H250.4z"
		/>
	<path class="st4" d="M256.7,20.1v0.6c0,0.1,0,0.1-0.1,0.1h-2.7v1.6h2.6c0.1,0,0.1,0,0.1,0.1V23c0,0.1,0,0.1-0.1,0.1h-2.6v2.3
		c0,0.1,0,0.1-0.1,0.1h-0.7c-0.1,0-0.1,0-0.1-0.1v-5.4c0-0.1,0-0.1,0.1-0.1h3.5C256.7,20,256.7,20.1,256.7,20.1z"/>
	<path class="st4" d="M261.7,20.1v0.6c0,0.1,0,0.1-0.1,0.1h-2.7v1.6h2.6c0.1,0,0.1,0,0.1,0.1V23c0,0.1,0,0.1-0.1,0.1h-2.6v2.3
		c0,0.1,0,0.1-0.1,0.1H258c-0.1,0-0.1,0-0.1-0.1v-5.4c0-0.1,0-0.1,0.1-0.1h3.5C261.6,20,261.7,20.1,261.7,20.1z"/>
	<path class="st4" d="M262.6,22.8c0-1.6,1.3-2.9,2.9-2.9c1.6,0,2.9,1.3,2.9,2.9c0,1.6-1.3,2.9-2.9,2.9
		C263.9,25.7,262.6,24.4,262.6,22.8z M267.4,22.8c0-1.1-0.9-2-2-2s-2,0.9-2,2c0,1.1,0.9,2,2,2S267.4,24,267.4,22.8z"/>
	<path class="st4" d="M273.6,25.5c0,0.1,0,0.1-0.1,0.1h-0.7c-0.1,0-0.1,0-0.1-0.1l-1-1.9h-0.1h-1.2v1.9c0,0.1,0,0.1-0.1,0.1h-0.7
		c-0.1,0-0.1,0-0.1-0.1v-5.4c0-0.1,0-0.1,0.1-0.1h2c1.6,0,2.1,0.6,2.1,1.8c0,0.9-0.3,1.5-1.1,1.7L273.6,25.5z M270.4,22.8h1.3
		c0.7,0,1.2-0.2,1.2-1c0-0.8-0.5-1-1.2-1h-1.3V22.8z"/>
	<path class="st4" d="M279.3,22.8c0,1.6-1,2.8-2.9,2.8h-1.4c-0.1,0-0.1,0-0.1-0.1v-5.4c0-0.1,0-0.1,0.1-0.1h1.4
		C278.3,20,279.3,21.2,279.3,22.8z M278.4,22.8c0-1.2-0.7-2-2-2h-0.7v4h0.7C277.7,24.8,278.4,24,278.4,22.8z"/>
	<path class="st4" d="M284.6,25.6h-0.7c-0.1,0-0.1,0-0.1-0.1l-0.4-1H281l-0.4,1c0,0.1-0.1,0.1-0.1,0.1h-0.7c-0.1,0-0.1-0.1-0.1-0.1
		l2-5.4c0-0.1,0.1-0.1,0.1-0.1h0.6c0.1,0,0.1,0,0.1,0.1l2,5.4C284.7,25.5,284.7,25.6,284.6,25.6z M283.1,23.7l-0.9-2.6l-0.9,2.6
		H283.1z"/>
	<path class="st4" d="M289.6,24c0,1.1-0.6,1.6-2,1.6h-1.9c-0.1,0-0.1,0-0.1-0.1v-5.4c0-0.1,0-0.1,0.1-0.1h1.9c1.2,0,1.7,0.7,1.7,1.4
		c0,0.6-0.3,1-0.9,1.2C289.2,22.8,289.6,23.3,289.6,24z M287.5,20.8h-1.1v1.5h1.1c0.6,0,0.9-0.3,0.9-0.8
		C288.4,21,288.2,20.8,287.5,20.8z M288.7,23.9c0-0.6-0.3-0.9-1.1-0.9h-1.1v1.8h1.1C288.3,24.8,288.7,24.6,288.7,23.9z"/>
	<path class="st4" d="M294.3,24.9v0.6c0,0.1,0,0.1-0.1,0.1h-3.4c-0.1,0-0.1,0-0.1-0.1v-5.4c0-0.1,0-0.1,0.1-0.1h0.7
		c0.1,0,0.1,0,0.1,0.1v4.7h2.6C294.2,24.8,294.3,24.8,294.3,24.9z"/>
	<path class="st4" d="M299.1,24.9v0.6c0,0.1,0,0.1-0.1,0.1h-3.4c-0.1,0-0.1,0-0.1-0.1v-5.4c0-0.1,0-0.1,0.1-0.1h3.4
		c0.1,0,0.1,0,0.1,0.1v0.6c0,0.1,0,0.1-0.1,0.1h-2.7v1.5h2.5c0.1,0,0.1,0,0.1,0.1V23c0,0.1,0,0.1-0.1,0.1h-2.5v1.7h2.7
		C299,24.8,299.1,24.8,299.1,24.9z"/>
</g>
<g class="st3">
	<path class="st4" d="M10.9,24.9v0.6c0,0.1,0,0.1-0.1,0.1H7.4c-0.1,0-0.1,0-0.1-0.1v-5.4c0-0.1,0-0.1,0.1-0.1H8c0.1,0,0.1,0,0.1,0.1
		v4.7h2.6C10.8,24.8,10.9,24.8,10.9,24.9z"/>
	<path class="st4" d="M15.6,24.9v0.6c0,0.1,0,0.1-0.1,0.1h-3.4c-0.1,0-0.1,0-0.1-0.1v-5.4c0-0.1,0-0.1,0.1-0.1h3.4
		c0.1,0,0.1,0,0.1,0.1v0.6c0,0.1,0,0.1-0.1,0.1h-2.7v1.5h2.5c0.1,0,0.1,0,0.1,0.1V23c0,0.1,0,0.1-0.1,0.1h-2.5v1.7h2.7
		C15.6,24.8,15.6,24.8,15.6,24.9z"/>
	<path class="st4" d="M20.7,24.1c0,1-0.7,1.6-2.1,1.6c-1.2,0-1.9-0.4-2-1.4c0-0.1,0-0.1,0.1-0.1h0.6c0.1,0,0.1,0.1,0.1,0.1
		c0.1,0.4,0.5,0.6,1.2,0.6c0.8,0,1.2-0.2,1.2-0.8c0-0.6-0.4-0.8-1.2-1c-1-0.2-1.9-0.6-1.9-1.7c0-0.9,0.6-1.5,1.9-1.5
		c1.2,0,1.9,0.4,2,1.4c0,0.1,0,0.1-0.1,0.1h-0.6c-0.1,0-0.1,0-0.1-0.1c-0.1-0.4-0.5-0.6-1.1-0.6c-0.6,0-1,0.3-1,0.7
		c0,0.5,0.3,0.7,1,0.9C19.7,22.6,20.7,22.9,20.7,24.1z"/>
	<path class="st4" d="M25.7,24.1c0,1-0.7,1.6-2.1,1.6c-1.2,0-1.9-0.4-2-1.4c0-0.1,0-0.1,0.1-0.1h0.6c0.1,0,0.1,0.1,0.1,0.1
		c0.1,0.4,0.5,0.6,1.2,0.6c0.8,0,1.2-0.2,1.2-0.8c0-0.6-0.4-0.8-1.2-1c-1-0.2-1.9-0.6-1.9-1.7c0-0.9,0.6-1.5,1.9-1.5
		c1.2,0,1.9,0.4,2,1.4c0,0.1,0,0.1-0.1,0.1h-0.6c-0.1,0-0.1,0-0.1-0.1c-0.1-0.4-0.5-0.6-1.1-0.6c-0.6,0-1,0.3-1,0.7
		c0,0.5,0.3,0.7,1,0.9C24.7,22.6,25.7,22.9,25.7,24.1z"/>
	<path class="st4" d="M34.5,25.6h-0.7c-0.1,0-0.1,0-0.1-0.1l-0.4-1h-2.4l-0.4,1c0,0.1-0.1,0.1-0.1,0.1h-0.7c-0.1,0-0.1-0.1-0.1-0.1
		l2-5.4c0-0.1,0.1-0.1,0.1-0.1h0.6c0.1,0,0.1,0,0.1,0.1l2,5.4C34.6,25.5,34.5,25.6,34.5,25.6z M33,23.7l-0.9-2.6l-0.9,2.6H33z"/>
	<path class="st4" d="M39.3,20.1v0.6c0,0.1,0,0.1-0.1,0.1h-2.7v1.6H39c0.1,0,0.1,0,0.1,0.1V23c0,0.1,0,0.1-0.1,0.1h-2.6v2.3
		c0,0.1,0,0.1-0.1,0.1h-0.7c-0.1,0-0.1,0-0.1-0.1v-5.4c0-0.1,0-0.1,0.1-0.1h3.5C39.3,20,39.3,20.1,39.3,20.1z"/>
	<path class="st4" d="M44.2,20.1v0.6c0,0.1,0,0.1-0.1,0.1h-2.7v1.6h2.6c0.1,0,0.1,0,0.1,0.1V23c0,0.1,0,0.1-0.1,0.1h-2.6v2.3
		c0,0.1,0,0.1-0.1,0.1h-0.7c-0.1,0-0.1,0-0.1-0.1v-5.4c0-0.1,0-0.1,0.1-0.1h3.5C44.2,20,44.2,20.1,44.2,20.1z"/>
	<path class="st4" d="M45.1,22.8c0-1.6,1.3-2.9,2.9-2.9c1.6,0,2.9,1.3,2.9,2.9c0,1.6-1.3,2.9-2.9,2.9C46.4,25.7,45.1,24.4,45.1,22.8
		z M50,22.8c0-1.1-0.9-2-2-2s-2,0.9-2,2c0,1.1,0.9,2,2,2S50,24,50,22.8z"/>
	<path class="st4" d="M56.2,25.5c0,0.1,0,0.1-0.1,0.1h-0.7c-0.1,0-0.1,0-0.1-0.1l-1-1.9h-0.1H53v1.9c0,0.1,0,0.1-0.1,0.1h-0.7
		c-0.1,0-0.1,0-0.1-0.1v-5.4c0-0.1,0-0.1,0.1-0.1h2c1.6,0,2.1,0.6,2.1,1.8c0,0.9-0.3,1.5-1.1,1.7L56.2,25.5z M53,22.8h1.3
		c0.7,0,1.2-0.2,1.2-1c0-0.8-0.5-1-1.2-1H53V22.8z"/>
	<path class="st4" d="M61.8,22.8c0,1.6-1,2.8-2.9,2.8h-1.4c-0.1,0-0.1,0-0.1-0.1v-5.4c0-0.1,0-0.1,0.1-0.1h1.4
		C60.9,20,61.8,21.2,61.8,22.8z M60.9,22.8c0-1.2-0.7-2-2-2h-0.7v4h0.7C60.3,24.8,60.9,24,60.9,22.8z"/>
	<path class="st4" d="M67.2,25.6h-0.7c-0.1,0-0.1,0-0.1-0.1l-0.4-1h-2.4l-0.4,1c0,0.1-0.1,0.1-0.1,0.1h-0.7c-0.1,0-0.1-0.1-0.1-0.1
		l2-5.4c0-0.1,0.1-0.1,0.1-0.1h0.6c0.1,0,0.1,0,0.1,0.1l2,5.4C67.3,25.5,67.2,25.6,67.2,25.6z M65.7,23.7l-0.9-2.6l-0.9,2.6H65.7z"
		/>
	<path class="st4" d="M72.1,24c0,1.1-0.6,1.6-2,1.6h-1.9c-0.1,0-0.1,0-0.1-0.1v-5.4c0-0.1,0-0.1,0.1-0.1h1.9c1.2,0,1.7,0.7,1.7,1.4
		c0,0.6-0.3,1-0.9,1.2C71.8,22.8,72.1,23.3,72.1,24z M70.1,20.8H69v1.5h1.1c0.6,0,0.9-0.3,0.9-0.8C71,21,70.7,20.8,70.1,20.8z
		 M71.2,23.9c0-0.6-0.3-0.9-1.1-0.9H69v1.8h1.1C70.9,24.8,71.2,24.6,71.2,23.9z"/>
	<path class="st4" d="M76.9,24.9v0.6c0,0.1,0,0.1-0.1,0.1h-3.4c-0.1,0-0.1,0-0.1-0.1v-5.4c0-0.1,0-0.1,0.1-0.1H74
		c0.1,0,0.1,0,0.1,0.1v4.7h2.6C76.8,24.8,76.9,24.8,76.9,24.9z"/>
	<path class="st4" d="M81.6,24.9v0.6c0,0.1,0,0.1-0.1,0.1h-3.4c-0.1,0-0.1,0-0.1-0.1v-5.4c0-0.1,0-0.1,0.1-0.1h3.4
		c0.1,0,0.1,0,0.1,0.1v0.6c0,0.1,0,0.1-0.1,0.1h-2.7v1.5h2.5c0.1,0,0.1,0,0.1,0.1V23c0,0.1,0,0.1-0.1,0.1h-2.5v1.7h2.7
		C81.6,24.8,81.6,24.8,81.6,24.9z"/>
</g>
<rect x="3" y="33.7" class="st5" width="301.1" height="14.1"/>
<g class="st3">
	<path d="M287,38.7v0.5c0,0.1-0.1,0.1-0.1,0.1h-3.7c-0.1,0-0.1,0-0.1-0.1v-0.5c0-0.1,0.1-0.1,0.1-0.1h1.5v-4
		c-0.4,0.4-0.9,0.5-1.3,0.5c-0.1,0-0.1,0-0.1-0.1v-0.5c0-0.1,0-0.1,0.1-0.1c0.5,0,0.9-0.2,1.3-0.6h0.8c0.1,0,0.1,0,0.1,0.1v4.8h1.2
		C286.9,38.6,287,38.7,287,38.7z"/>
	<path d="M292.3,36.3v0.5c0,2.1-0.6,2.7-2.2,2.7c-1.5,0-2.2-0.6-2.2-2.7v-0.5c0-2.1,0.6-2.7,2.2-2.7
		C291.7,33.7,292.3,34.3,292.3,36.3z M288.9,36.3v0.5c0,1.6,0.4,1.8,1.3,1.8s1.3-0.2,1.3-1.8v-0.5c0-1.6-0.4-1.8-1.3-1.8
		S288.9,34.7,288.9,36.3z M289.5,37.5l0.8-1.8c0-0.1,0.1-0.1,0.2-0.1h0.3c0.1,0,0.1,0,0.1,0.1l-0.8,1.8c0,0.1-0.1,0.1-0.2,0.1h-0.3
		C289.5,37.6,289.4,37.5,289.5,37.5z"/>
	<path d="M297.8,36.3v0.5c0,2.1-0.6,2.7-2.2,2.7c-1.5,0-2.2-0.6-2.2-2.7v-0.5c0-2.1,0.6-2.7,2.2-2.7
		C297.1,33.7,297.8,34.3,297.8,36.3z M294.3,36.3v0.5c0,1.6,0.4,1.8,1.3,1.8s1.3-0.2,1.3-1.8v-0.5c0-1.6-0.4-1.8-1.3-1.8
		S294.3,34.7,294.3,36.3z M294.9,37.5l0.8-1.8c0-0.1,0.1-0.1,0.2-0.1h0.3c0.1,0,0.1,0,0.1,0.1l-0.8,1.8c0,0.1-0.1,0.1-0.2,0.1H295
		C294.9,37.6,294.9,37.5,294.9,37.5z"/>
	<path d="M301,34.8c0,0.7-0.3,1.1-1.1,1.1c-0.7,0-1.1-0.4-1.1-1.1c0-0.7,0.3-1.1,1.1-1.1C300.7,33.7,301,34.1,301,34.8z M303,34.8
		l-3,3.8c-0.1,0.1-0.1,0.1-0.2,0l-0.3-0.2c-0.1,0-0.1-0.1,0-0.2l3-3.8c0.1-0.1,0.1-0.1,0.2,0l0.3,0.2C303,34.7,303,34.8,303,34.8z
		 M299.6,34.8c0,0.3,0.1,0.5,0.4,0.5c0.4,0,0.4-0.2,0.4-0.5c0-0.3-0.1-0.5-0.4-0.5C299.6,34.3,299.6,34.5,299.6,34.8z M303.4,38.3
		c0,0.7-0.3,1.1-1.1,1.1c-0.7,0-1.1-0.4-1.1-1.1s0.3-1.1,1.1-1.1C303.1,37.2,303.4,37.6,303.4,38.3z M302,38.3
		c0,0.3,0.1,0.5,0.4,0.5c0.4,0,0.4-0.2,0.4-0.5c0-0.3-0.1-0.5-0.4-0.5C302,37.8,302,38,302,38.3z"/>
</g>
<g class="st3">
</g>
<g class="st3">
	<path d="M7.8,36.3v0.5c0,2.1-0.6,2.7-2.2,2.7s-2.2-0.6-2.2-2.7v-0.5c0-2.1,0.6-2.7,2.2-2.7S7.8,34.3,7.8,36.3z M4.4,36.3v0.5
		c0,1.6,0.4,1.8,1.3,1.8s1.3-0.2,1.3-1.8v-0.5c0-1.6-0.4-1.8-1.3-1.8S4.4,34.7,4.4,36.3z M5,37.5l0.8-1.8c0-0.1,0.1-0.1,0.2-0.1h0.3
		c0.1,0,0.1,0,0.1,0.1l-0.8,1.8c0,0.1-0.1,0.1-0.2,0.1H5.1C5,37.6,4.9,37.5,5,37.5z"/>
	<path d="M11.1,34.8c0,0.7-0.3,1.1-1.1,1.1c-0.7,0-1.1-0.4-1.1-1.1c0-0.7,0.3-1.1,1.1-1.1C10.7,33.7,11.1,34.1,11.1,34.8z M13,34.8
		l-3,3.8c-0.1,0.1-0.1,0.1-0.2,0l-0.3-0.2c-0.1,0-0.1-0.1,0-0.2l3-3.8c0.1-0.1,0.1-0.1,0.2,0l0.3,0.2C13,34.7,13,34.8,13,34.8z
		 M9.6,34.8c0,0.3,0.1,0.5,0.4,0.5c0.4,0,0.4-0.2,0.4-0.5c0-0.3-0.1-0.5-0.4-0.5C9.7,34.3,9.6,34.5,9.6,34.8z M13.5,38.3
		c0,0.7-0.3,1.1-1.1,1.1c-0.7,0-1.1-0.4-1.1-1.1s0.3-1.1,1.1-1.1C13.1,37.2,13.5,37.6,13.5,38.3z M12,38.3c0,0.3,0.1,0.5,0.4,0.5
		c0.4,0,0.4-0.2,0.4-0.5c0-0.3-0.1-0.5-0.4-0.5C12.1,37.8,12,38,12,38.3z"/>
</g>
<text transform="matrix(1 0 0 1 145.7504 39.25)" class="st6 st7">50%</text>
<rect x="2.5" y="3.5" class="st5" width="301.2" height="11.2"/>
<text transform="matrix(1 0 0 1 38.1719 9.1001)" class="st8 st7">percent of listings affordable on selected income</text>
</svg>
